<svg xmlns="http://www.w3.org/2000/svg" width="19" height="19" viewBox="0 0 19 19" fill="none">    <path d="M10.0311 4.43978L10.0314 4.43976L10.0305 4.43309C9.98005 4.0641 9.66455 3.77962 9.28125 3.77962C8.86395 3.77962 8.525 4.11735 8.525 4.535V9.67125V9.71562L8.5579 9.74539L12.5829 13.388L12.5827 13.3882L12.5884 13.3927L12.6645 13.4522L12.6644 13.4524L12.6706 13.4565C12.9771 13.6612 13.3956 13.617 13.6508 13.3345L13.651 13.3347L13.6558 13.3286L13.7153 13.2516L13.7154 13.2518L13.7193 13.246C13.9239 12.9397 13.8799 12.5211 13.5973 12.2666C13.5972 12.2666 13.5972 12.2666 13.5971 12.2665L10.0375 9.04414V4.53587H10.0377L10.0373 4.52903L10.0311 4.43978ZM17.9125 9.53125C17.9125 4.76415 14.0484 0.9 9.28125 0.9C4.51415 0.9 0.65 4.76415 0.65 9.53125C0.65 14.2984 4.51415 18.1625 9.28125 18.1625C14.0484 18.1625 17.9125 14.2984 17.9125 9.53125ZM2.1625 9.53125C2.1625 5.59998 5.34998 2.4125 9.28125 2.4125C13.2125 2.4125 16.4 5.59998 16.4 9.53125C16.4 13.4625 13.2125 16.65 9.28125 16.65C5.34998 16.65 2.1625 13.4625 2.1625 9.53125Z" fill="#1E231E" stroke="#1E231E" stroke-width="0.2"/></svg>