<svg xmlns="http://www.w3.org/2000/svg" width="24" height="24" viewBox="0 0 24 24">    <g fill="none" fill-rule="evenodd">        <g fill="#1e231e" fill-rule="nonzero">            <path d="M10.667 3.25c4.096 0 7.416 3.32 7.416 7.417 0 1.785-.63 3.423-1.681 4.703.016.007.031.018.046.029l.084.073 3.456 3.482c.292.294.29.769-.004 1.06-.267.266-.684.288-.976.07l-.084-.073-3.456-3.483c-.04-.039-.073-.081-.101-.126-1.278 1.05-2.916 1.681-4.7 1.681-4.096 0-7.417-3.32-7.417-7.416S6.57 3.25 10.667 3.25zm0 1.5c-3.268 0-5.917 2.649-5.917 5.917 0 3.267 2.649 5.916 5.917 5.916 3.267 0 5.916-2.649 5.916-5.916 0-3.268-2.649-5.917-5.916-5.917z"/>        </g>    </g></svg>