<svg xmlns="http://www.w3.org/2000/svg" viewBox="5.73 5.43 288.55 121.62" fill="#1e231e">
  <path d="M42.941 918.133h64.157l69.363-209.238c7.512-21.961 15.023-56.063 15.023-56.063s9.832 33.523 19.079 56.063l90.167 213.293h7.512l90.746-213.293c9.25-21.961 18.5-56.063 18.5-56.063s8.09 34.102 15.606 56.063l69.359 209.238h59.535l-135.832-397.09h-7.511l-97.688 234.094c-8.09 19.082-16.18 47.976-16.18 47.976s-9.25-28.894-17.339-47.976l-99.997-234.094h-7.511L42.941 918.133M1010.46 922.188h6.35l187.85-219.649 186.13 219.649h6.35v-397.09h-58.37v204.031c0 21.965 2.3 56.641 2.3 56.641s-19.07-29.473-35.25-47.391l-98.84-119.074h-6.93l-98.84 119.074c-15.03 17.918-34.69 47.391-34.69 47.391s2.31-34.676 2.31-56.641V525.098h-58.37v397.09M1463.01 918.133h249.7v-53.75h-188.43V711.785h167.04v-52.597h-167.04v-80.34h196.53v-53.75h-257.8v393.035M1862.97 754.559c-15.6 16.769-36.99 43.925-36.99 43.925s4.06-32.363 4.06-56.64V525.098h-56.66v397.09h8.1l216.75-232.942c15.03-16.18 36.41-43.926 36.41-43.926s-4.04 34.68-4.04 56.641v216.172h56.64v-397.09h-7.51l-216.76 233.516M427.121 249.004c0 86.531-59.68 151.582-144.422 151.582-84.738 0-145.011-65.051-145.011-151.582 0-86.535 60.273-151.582 145.011-151.582 84.742 0 144.422 65.047 144.422 151.582zm-353.887 0c0 121.141 93.094 208.269 209.465 208.269 115.774 0 208.871-87.128 208.871-208.269 0-121.145-93.097-208.273-208.871-208.273-116.371 0-209.465 87.128-209.465 208.273M488.574 451.902h66.246l71.614-216.023c7.757-22.688 15.515-57.891 15.515-57.891s10.141 34.61 19.692 57.891l93.097 220.203h7.758l93.692-220.203c9.55-22.688 19.093-57.891 19.093-57.891s8.36 35.203 16.114 57.891l71.609 216.023h61.476L884.234 41.922h-7.754L775.625 283.613c-8.352 19.696-16.715 49.532-16.715 49.532s-9.543-29.836-17.898-49.532L637.77 41.922h-7.758l-141.438 409.98M1152.76 283.016c-16.11 17.304-38.19 45.351-38.19 45.351s4.17-33.418 4.17-58.476V46.101h-58.48v409.981h8.35l223.79-240.496c15.52-16.711 37.6-45.352 37.6-45.352s-4.18 35.801-4.18 58.477v223.191h58.48V41.922h-7.75l-223.79 241.094M1452.32 451.902h257.8v-55.496h-194.55V238.855h172.47v-54.304h-172.47v-82.949h202.91v-55.5h-266.16v405.8M1880.18 101.602c105.64 0 155.17 60.867 155.17 147.402 0 86.531-49.53 147.402-155.17 147.402h-44.16V101.602Zm-107.41 350.3h111.59c130.1 0 216.63-81.16 216.63-202.898s-85.94-202.902-216.63-202.902h-111.59v405.8"
        transform="matrix(.13333 0 0 -.13333 0 132.48)"/>
  <path d="M667.48 764.949c10.793-3.906 21.778-10.293 32.649-19.008.437.481.863.957 1.269 1.45a101.176 101.176 0 0 1 10.622 15.078c3.906 6.754 7.05 14.035 9.363 21.648.793 2.524 1.398 5.063 1.988 7.617l.871 4.442c.524 2.637.906 4.625 1.16 6.656 1.286 10.023 1.368 20.672.254 31.676-1.172 11.336-3.625 23.379-7.304 35.805-.493 1.664-1.301 3.398-2.512 5.429-3.203 5.387-8.25 9.352-14.188 11.153-4.847 1.441-9.277 1.484-14.172.085a24.633 24.633 0 0 1-14.679-11.957c-3.16-5.839-3.852-12.539-1.961-18.871a167.01 167.01 0 0 0 1.832-6.672 135.971 135.971 0 0 0 1.664-7.234c.367-1.789.703-3.551.973-5.305.269-1.531.507-3.168.718-4.734 1.231-9.926 1.118-18.672-.367-26.769-.703-3.68-1.59-6.895-2.691-9.911a56.559 56.559 0 0 0-3.875-8.265c-1.836-3.215-4.024-6.207-6.66-9.121a58.408 58.408 0 0 0-7.036-6.633 65.446 65.446 0 0 0-1.808-1.41c2.328-.844 4.543-1.66 6.633-2.438l7.257-2.711M605.84 796.961c16.781 0 30.422 13.652 30.422 30.437 0 16.782-13.641 30.434-30.422 30.434s-30.434-13.652-30.434-30.434c0-16.785 13.653-30.437 30.434-30.437"
        transform="matrix(.13333 0 0 -.13333 0 132.48)"/>
  <path d="M671.133 670.141c1.836-3.161 3.347-6.532 4.57-10.297a62.286 62.286 0 0 0 2.227-9.434c.117-.75.215-1.508.312-2.269 1.719 1.453 3.399 2.82 4.981 4.129l6.402 5.304c8.801 7.422 19.824 13.735 32.816 18.781-.199.625-.41 1.247-.625 1.852a105.151 105.151 0 0 1-7.738 16.723 104.844 104.844 0 0 1-14.07 18.925c-1.778 1.922-3.668 3.727-5.602 5.52l-3.429 3.016c-2 1.734-3.539 3.058-5.176 4.289-7.996 6.101-17.176 11.504-27.313 16.09-10.367 4.636-22.031 8.527-34.64 11.558-1.575.367-3.285.555-5.383.555-6.856-.098-12.809-2.481-17.336-6.715-3.691-3.496-5.977-7.387-7.149-12.227-1.523-6.429-.464-13.07 3.004-18.699 3.469-5.656 8.926-9.601 15.356-11.14a157.78 157.78 0 0 0 6.699-1.747 143 143 0 0 0 7.109-2.187 107.825 107.825 0 0 0 5.094-1.809 129.095 129.095 0 0 0 4.453-1.761c9.223-3.875 16.727-8.352 22.989-13.676 2.836-2.442 5.175-4.824 7.234-7.297a52.995 52.995 0 0 0 5.215-7.484M619.957 661.777a30.309 30.309 0 0 1-15.144 4.078c-10.875 0-20.997-5.828-26.418-15.222-4.059-7.02-5.133-15.215-3.032-23.086 2.106-7.852 7.137-14.422 14.172-18.469A30.352 30.352 0 0 1 604.699 605c10.887 0 20.996 5.824 26.414 15.219 4.059 7.023 5.133 15.215 3.02 23.07-2.106 7.867-7.141 14.441-14.176 18.488"
        transform="matrix(.13333 0 0 -.13333 0 132.48)"/>
  <path d="M695.715 572.676c6.644.183 12.793 2.933 17.316 7.73a211.428 211.428 0 0 0 4.871 4.949 148.556 148.556 0 0 0 5.438 5.036 108.777 108.777 0 0 0 4.121 3.523c1.113.934 2.324 1.875 3.527 2.809 8.207 6.207 15.836 10.48 23.578 13.226 3.539 1.242 6.77 2.071 9.957 2.625 6.641 1.156 13.454 1 20.262-.414a60.045 60.045 0 0 0 9.297-2.801 75.27 75.27 0 0 0 2.117-.847 329.133 329.133 0 0 0-1.113 6.472l-1.367 8.125c-2.031 11.282-1.981 24 .136 37.778-.636.144-1.281.269-1.929.383a102.468 102.468 0 0 1-18.336 1.648c-7.828 0-15.707-.902-23.422-2.703-2.57-.582-5.063-1.328-7.574-2.09l-4.317-1.465c-2.734-.961-4.539-1.566-6.316-2.332-9.34-3.89-18.602-9.148-27.57-15.625-9.282-6.695-18.493-14.848-27.36-24.211-1.215-1.285-2.312-2.847-3.441-4.879-3.063-5.488-3.981-11.836-2.582-17.894 1.187-4.922 3.414-8.844 7.023-12.285a24.554 24.554 0 0 1 16.938-6.758h.746M770.418 568.926c-5.32 0-10.563-1.41-15.18-4.078-14.535-8.387-19.527-27.032-11.136-41.559 5.418-9.379 15.543-15.215 26.414-15.215 5.3 0 10.55 1.406 15.16 4.074 14.523 8.391 19.535 27.036 11.14 41.579-5.414 9.375-15.527 15.199-26.398 15.199"
        transform="matrix(.13333 0 0 -.13333 0 132.48)"/>
  <path d="M875.578 695.992c-10.785 3.906-21.773 10.305-32.633 19.008-.418-.48-.859-.973-1.269-1.465a104.12 104.12 0 0 1-10.629-15.078c-3.899-6.738-7.043-14.019-9.352-21.633-.777-2.5-1.382-5.062-1.976-7.617l-.891-4.453c-.547-2.852-.898-4.711-1.129-6.602-1.293-10.05-1.379-20.703-.265-31.73 1.156-11.367 3.613-23.41 7.308-35.777.492-1.696 1.281-3.415 2.496-5.43 3.2-5.402 8.239-9.367 14.184-11.168 4.906-1.484 9.312-1.512 14.144-.086 6.348 1.887 11.579 6.144 14.727 11.961 3.145 5.82 3.836 12.504 1.945 18.851-.664 2.286-1.285 4.5-1.832 6.672a143.152 143.152 0 0 0-1.648 7.25c-.367 1.789-.727 3.555-.992 5.301-.27 1.551-.493 3.188-.703 4.738-1.243 9.969-1.114 18.715.367 26.782.691 3.668 1.582 6.894 2.707 9.929a53.368 53.368 0 0 0 3.847 8.235 54.025 54.025 0 0 0 6.649 9.113c2.113 2.352 4.48 4.566 7.035 6.625.59.48 1.195.941 1.816 1.41-2.269.832-4.453 1.652-6.5 2.414l-7.406 2.75M937.254 663.98c-16.785 0-30.438-13.652-30.438-30.437 0-16.781 13.653-30.434 30.438-30.434 16.781 0 30.43 13.653 30.43 30.434 0 16.785-13.649 30.437-30.43 30.437"
        transform="matrix(.13333 0 0 -.13333 0 132.48)"/>
  <path d="M925.207 706.074c6.266.082 12.211 2.465 16.766 6.711 3.668 3.469 5.937 7.36 7.125 12.215 1.523 6.43.465 13.086-2.993 18.699-3.468 5.656-8.925 9.606-15.371 11.141a154.454 154.454 0 0 0-6.683 1.75 140.344 140.344 0 0 0-7.121 2.183 129.415 129.415 0 0 0-5.094 1.805 103.498 103.498 0 0 0-4.441 1.75c-9.211 3.875-16.711 8.363-22.989 13.692-2.847 2.457-5.187 4.839-7.246 7.304a54.356 54.356 0 0 0-5.191 7.438 53.896 53.896 0 0 0-4.594 10.359c-.977 2.981-1.711 6.152-2.219 9.41-.109.746-.222 1.508-.304 2.27-1.852-1.551-3.629-3.016-5.289-4.399l-6.137-5.062c-8.77-7.395-19.801-13.707-32.789-18.754.211-.621.426-1.231.633-1.824 2.031-5.727 4.64-11.352 7.746-16.75 3.875-6.731 8.613-13.102 14.058-18.926 1.789-1.949 3.696-3.742 5.614-5.527l3.414-3.008c2-1.735 3.539-3.059 5.175-4.289 8.008-6.117 17.188-11.52 27.313-16.09 10.449-4.668 22.113-8.559 34.64-11.563 1.59-.371 3.297-.55 5.399-.55l.578.015M923.121 799.164c14.059-8.125 33.508-2.836 41.559 11.129 8.406 14.539 3.414 33.184-11.129 41.57a30.325 30.325 0 0 1-15.156 4.078c-10.875 0-21-5.824-26.415-15.218-4.062-7.024-5.132-15.215-3.035-23.086 2.118-7.852 7.149-14.426 14.176-18.473"
        transform="matrix(.13333 0 0 -.13333 0 132.48)"/>
  <path d="M749.375 837.832c2.02-11.34 1.973-24.059-.141-37.793a75.105 75.105 0 0 1 1.891-.367c13.652-2.524 28.074-2.145 41.801 1.055 2.554.582 5.062 1.312 7.558 2.089l4.34 1.45c2.571.906 4.446 1.554 6.281 2.332 9.36 3.918 18.641 9.179 27.598 15.636 9.207 6.641 18.418 14.782 27.344 24.215 1.187 1.254 2.301 2.824 3.473 4.906 3.039 5.461 3.957 11.805 2.546 17.844-1.168 4.938-3.398 8.856-7.007 12.309a24.568 24.568 0 0 1-16.954 6.758c-7.371-.188-13.519-2.934-18.074-7.743a144.309 144.309 0 0 0-4.824-4.91 149.399 149.399 0 0 0-5.488-5.078 111.754 111.754 0 0 0-4.102-3.508 115.026 115.026 0 0 0-3.734-2.976c-8-6.047-15.645-10.313-23.371-13.059-3.524-1.242-6.758-2.07-9.942-2.625-6.617-1.113-13.343-1.027-20.285.41a58.78 58.78 0 0 0-9.273 2.805 69.17 69.17 0 0 0-2.117.848c.433-2.426.832-4.766 1.199-6.953l1.281-7.645M787.832 896.094c14.543 8.375 19.547 27.031 11.156 41.558-5.414 9.395-15.539 15.215-26.429 15.215a30.275 30.275 0 0 1-15.145-4.074c-7.035-4.047-12.07-10.621-14.172-18.492-2.101-7.856-1.027-16.059 3.035-23.086 8.067-13.957 27.524-19.262 41.555-11.121"
        transform="matrix(.13333 0 0 -.13333 0 132.48)"/>
  <path d="M2161.63 870.906c8.27 0 11.57 3.856 11.57 10.188 0 6.328-3.3 10.453-11.57 10.453h-4.95v-20.641zm21.2-19.812h-11l-7.99 11.836h-7.16v-11.836h-10.18v48.992h15.42c14.59 0 21.47-8.539 21.47-18.715 0-7.156-3.58-12.945-9.91-15.965zm15.96 23.945c0 21.473-15.13 36.051-35.77 36.051-20.38 0-35.23-14.578-35.23-36.051 0-20.918 14.85-35.23 35.23-35.23 20.64 0 35.77 14.312 35.77 35.23zm-79.27 0c0 25.047 19.54 43.211 43.5 43.211 24.22 0 44.04-18.164 44.04-43.211 0-24.777-19.82-42.941-44.04-42.941-23.96 0-43.5 18.164-43.5 42.941"
        transform="matrix(.13333 0 0 -.13333 0 132.48)"/>
</svg>
