<svg xmlns="http://www.w3.org/2000/svg" width="24" height="24" viewBox="0 0 24 24">  <g fill="none" fill-rule="evenodd">    <g>      <path fill="#72B9A5"            d="M21.318 13.636l-1.454 1.455v2.454c0 1.273-1.046 2.319-2.319 2.319h-2.454l-1.455 1.454c-.909.91-2.363.91-3.272 0l-1.455-1.454H6.455c-1.273 0-2.319-1.046-2.319-2.319v-2.454l-1.454-1.455c-.91-.909-.91-2.363 0-3.272l1.454-1.455V6.455c0-1.273 1.046-2.319 2.319-2.319h2.454l1.455-1.454c.909-.91 2.363-.91 3.272 0l1.455 1.454h2.454c1.273 0 2.319 1.046 2.319 2.319v2.454l1.454 1.455c.91.886.91 2.363 0 3.272z M15.957 9L17 10.061 11.387 15.5 8 12.322 9.026 11.245 11.371 13.444z"/>    </g>  </g></svg>